<?xml version="1.0" encoding="utf-8"?>
<!-- Generator: Adobe Illustrator 27.9.6, SVG Export Plug-In . SVG Version: 9.03 Build 54986)  -->
<svg version="1.1" id="Layer_1" xmlns="http://www.w3.org/2000/svg" xmlns:xlink="http://www.w3.org/1999/xlink" x="0px" y="0px"
	 viewBox="0 0 300 300" style="enable-background:new 0 0 300 300;" xml:space="preserve">
<style type="text/css">
	.st0{fill:#BEBEBE;}
	.st1{fill:#0073A5;}
</style>
<path class="st0" d="M105.5,114.4c19.4-24.7,55.1-28.9,79.8-9.5c3.6,2.8,6.7,6,9.5,9.5l80-46.1c-45.1-68.9-137.4-88-206.3-42.9
	C51.3,36.6,36.7,51.2,25.5,68.3L105.5,114.4z"/>
<path class="st0" d="M141.9,205.5c-30.9-4.3-52.4-32.9-48.1-63.8c0.6-4.5,1.8-8.9,3.5-13.2l-80-45.9C6.8,103.3,1.2,126.2,1.2,149.5
	c0,79.2,62.3,143.7,140.7,147.9L141.9,205.5L141.9,205.5z"/>
<path class="st1" d="M282.9,82.6L203,128.5c11.6,29-2.5,61.8-31.4,73.5c-4.3,1.7-8.7,2.9-13.2,3.5v91.9
	c78.4-4.2,140.7-68.7,140.7-147.9C299,126.2,293.5,103.2,282.9,82.6"/>
</svg>
