<?xml version="1.0" encoding="utf-8"?>
<!-- Generator: Adobe Illustrator 27.9.6, SVG Export Plug-In . SVG Version: 9.03 Build 54986)  -->
<svg version="1.1" id="Layer_1" xmlns="http://www.w3.org/2000/svg" xmlns:xlink="http://www.w3.org/1999/xlink" x="0px" y="0px"
	 viewBox="0 0 362.1 101" style="enable-background:new 0 0 362.1 101;" xml:space="preserve">
<style type="text/css">
	.st0{fill:#F7F7F7;}
	.st1{fill:#363632;}
</style>
<g>
	<path class="st0" d="M335.2,34.9c-2.6,7.9-5.3,15.9-7.9,23.8c-3,9-5.9,18-8.8,27c-1.9,5.8-5,8.2-10.4,8.3c-5.6,0.1-9.1-2.5-11-8.3
		c-5.3-16.4-10.6-32.9-15.9-49.4c-0.2-0.8-0.2-1.7-1.6-2.2c-0.1,1.5-0.2,2.8-0.2,4.2c0,16.8-0.1,33.6,0.1,50.5
		c0,3.8-1.1,4.7-4.8,4.7c-11.6-0.1-11.6,0-11.6-11.8c0-20.3,0-40.6,0-60.9c0-8.7,2.6-12.5,9.7-14c8.5-1.8,16.2,1.1,18.9,8.2
		c3.6,9.5,6.3,19.3,9.4,28.9c2.3,7.1,4.5,14.2,7.2,22.7c4.6-14.2,8.8-26.9,12.9-39.6c1.1-3.3,2.1-6.7,3.3-10
		c3.5-9.8,13.9-13.8,23.2-8.9c4,2.1,5.6,5.5,5.6,9.8c0,24,0,48,0.1,71.9c0,3-1.1,3.5-3.8,3.6c-13.3,0.3-13.3,0.4-13.3-12.6
		c0-13.7,0-27.3,0-41c0-1.6,0-3.2,0-4.7C335.9,35,335.5,34.9,335.2,34.9z"/>
	<path class="st0" d="M96,49.4c0-10.3,0-20.6,0-31c0-8.9,3.1-11.9,12.1-11.9c7.3,0,14.7,0,22,0c18.7,0.1,32.2,9.9,37.3,27.8
		c3.2,11.3,3.2,22.8-0.8,33.9c-5.7,15.9-17.6,23.7-34,24.9c-8.6,0.6-17.3,0.3-26,0.1C99.3,93.1,96,89.6,96,82.3
		C95.9,71.3,96,60.3,96,49.4z M115,49.3c0,5-0.2,10,0.1,14.9c0.2,4.6-2.2,10.8,1,13.3c3,2.3,8.9,0.9,13.5,0.8
		c8.9-0.2,15.4-4.9,18.6-13.2c2.4-6.2,2.9-12.6,2.4-19.1c-1.5-17.3-9.8-24.7-27.2-24.7c-1.7,0-3.3,0.2-5,0c-3-0.3-3.6,1-3.5,3.7
		C115.1,33.1,115,41.2,115,49.3z"/>
	<path class="st0" d="M79.3,8.4c0,18.8,0.5,37.6-0.1,56.4C78.7,81,67.6,91.1,49.8,93.1c-7,0.8-14,0.3-20.8-1.6
		C17.4,88.2,9.1,79.1,8.2,67.2C6.8,48,7.9,28.6,7.6,9.3c0-2.2,0.9-2.9,3-2.9c3.8,0.1,7.7,0.3,11.5,0c3.8-0.3,5.1,0.8,5.1,4.9
		c-0.2,16.3-0.1,32.6-0.1,49c0,5.9,0.8,11.6,6.5,14.7c6.5,3.6,13.5,3.6,20.1,0c5.2-2.9,6.6-8.1,6.6-13.7c0-16.7,0.1-33.3-0.1-50
		c-0.1-4,1.1-5.4,5-4.9c4.7,0.6,9.5-1,14.1,0.9c-0.1,0.1-0.3,0.3-0.3,0.3C79,8,79.1,8.2,79.3,8.4z"/>
	<path class="st0" d="M241.2,43.3c1.1,12.8,1.1,12.8-11.2,12.8c-7.2,0-14.3,0.1-21.5,0c-2.8-0.1-3.8,0.9-3.7,3.7
		c0.2,5.2,0.2,10.3,0,15.5c-0.1,2.9,1,3.7,3.7,3.6c11-0.1,22,0.1,33-0.1c4-0.1,5.5,0.9,5.4,5.2c-0.3,9.4-0.1,9.4-9.5,9.4
		c-13,0-26,0-39,0c-9.6,0-12.6-3.1-12.6-12.5c0-21,0-41.9,0-62.9c0-8.2,3.2-11.4,11.5-11.4c15,0,30,0.1,44.9-0.1
		c3.5,0,4.5,0.9,4.5,4.5C246.8,21,247,21,236.6,21c-9.2,0-18.3,0.1-27.5-0.1c-3.1-0.1-4.6,0.6-4.3,4.1c0.3,4.5,0.2,9,0,13.5
		c-0.1,2.9,1.1,3.6,3.8,3.6c10.5-0.1,21,0.1,31.4,0.2C240.4,42.7,240.8,43,241.2,43.3z"/>
	<path class="st1" d="M79.3,8.4C79.1,8.2,79,8,78.9,7.7c0-0.1,0.2-0.2,0.3-0.3C79.2,7.7,79.2,8.1,79.3,8.4z"/>
	<path class="st1" d="M241.2,43.3c-0.4-0.3-0.8-0.7-1.1-1C240.8,42.2,241.2,42.5,241.2,43.3z"/>
</g>
</svg>
