<?xml version="1.0" encoding="UTF-8"?>
<svg id="Capa_1" data-name="Capa 1" xmlns="http://www.w3.org/2000/svg" viewBox="0 0 1428.6 347.7">
  <defs>
    <style>
      .cls-1 {
        fill: #bebebe;
      }

      .cls-1, .cls-2 {
        stroke-width: 0px;
      }

      .cls-2 {
        fill: #0073a5;
      }
    </style>
  </defs>
  <rect class="cls-2" x="425.1" y="100.8" width="60.1" height="173.2"/>
  <g>
    <path class="cls-2" d="m519.9,100.8h54.7v31.9h.6c12-25,36.1-35.9,63.4-35.9,24.7,0,45.1,10.7,54.4,33.2,14-23.3,37.1-33.2,61.7-33.2,50,0,61.4,28.3,61.4,75.2v102h-60.1v-93.1c0-19.6-7-34.2-24-34.2-21.4,0-34,16.9-34,54.2v73.1h-60v-93.1c0-19.6-7-34.2-24.1-34.2-21.3,0-34,16.9-34,54.2v73.1h-60V100.8h0Z"/>
    <path class="cls-2" d="m989.5,150.3c-11-6.7-22-9.6-36.4-9.6-26,0-46,17.9-46,47.9,0,27.6,23.4,45.6,49.3,45.6,13.7,0,27.4-3,37.4-8.3l1.3,44.5c-15,5-33,7.6-48.9,7.6-57.4,0-101.1-33.2-101.1-90.4s43.7-90.7,101.1-90.7c18,0,33.9,3,47.7,9.7l-4.4,43.7Z"/>
    <path class="cls-2" d="m1353.2,150.3c-11-6.7-22-9.6-36.4-9.6-26,0-46,17.9-46,47.9,0,27.6,23.3,45.6,49.4,45.6,13.7,0,27.3-3,37.3-8.3l1.3,44.5c-15,5-33,7.6-49.1,7.6-57.4,0-101-33.2-101-90.4s43.6-90.7,101-90.7c18,0,34.1,3,47.7,9.7l-4.2,43.7Z"/>
    <path class="cls-2" d="m1022.7,298.3c8,2.6,15.4,3.6,23.7,3.6,14.8,0,26-8.7,30.4-24l-70.4-177.2h64.7l37.4,113h.6l35.7-113h60.1l-63.7,161.2c-17,43.6-30,85.8-85.1,85.8-12.7,0-25-1.3-37.3-4l3.9-45.4Z"/>
    <path class="cls-1" d="m120.1,130.6c12-15.2,30.6-25,51.4-25s39.4,9.8,51.4,25l92.1-53.1C284.4,30.9,231.5,0,171.5,0S58.6,30.9,28,77.5l92.1,53.1Z"/>
    <path class="cls-1" d="m162.1,235.4c-31.7-4.5-56-31.7-56-64.5,0-8.5,1.7-16.6,4.7-24.1L18.7,93.9C6.9,117,0,143.1,0,170.9c0,91.2,71.8,165.5,162.1,170.4v-105.9h0Z"/>
    <path class="cls-2" d="m324.4,93.9l-92,52.9c3,7.5,4.7,15.6,4.7,24.1,0,32.8-24.4,60-56.1,64.5v105.9c90.3-4.9,162.1-79.2,162.1-170.4-.1-27.8-6.8-53.9-18.7-77"/>
    <path class="cls-2" d="m1391.6,112.4c-4.2,4.2-6.4,9.3-6.4,15.3s2.1,11,6.4,15.3c4.2,4.2,9.3,6.4,15.3,6.4s11-2.1,15.3-6.4c4.2-4.2,6.4-9.3,6.4-15.3s-2.1-11-6.4-15.3c-4.2-4.2-9.3-6.4-15.3-6.4-6,.1-11.1,2.2-15.3,6.4m2.8,28.4c-3.3-3.5-5-7.9-5-13.1s1.7-9.6,5-13.1,7.5-5.3,12.6-5.3,9.1,1.8,12.4,5.3,5,7.9,5,13.1-1.7,9.6-5,13.1-7.5,5.3-12.5,5.3-9.2-1.8-12.5-5.3m4.2-.5h4.1v-11.2h3.5l7.1,11.2h4.4l-7.2-11.2c2,0,3.6-.7,4.8-1.9,1.2-1.3,1.8-3,1.8-5.1,0-4.8-2.9-7.1-8.7-7.1h-9.7v25.3h-.1Zm4.1-22.1h4.9c1.5,0,2.8.3,3.7.9,1,.6,1.5,1.5,1.5,2.8,0,1.6-.4,2.6-1.3,3.1s-2.2.8-3.9.8h-4.9v-7.6h0Z"/>
  </g>
</svg>