<?xml version="1.0" encoding="utf-8"?>
<!-- Generator: Adobe Illustrator 27.9.6, SVG Export Plug-In . SVG Version: 9.03 Build 54986)  -->
<svg version="1.1" id="Capa_1" xmlns="http://www.w3.org/2000/svg" xmlns:xlink="http://www.w3.org/1999/xlink" x="0px" y="0px"
	 viewBox="0 0 1428.6 347.7" style="enable-background:new 0 0 1428.6 347.7;" xml:space="preserve">
<style type="text/css">
	.st0{fill:#F2F2F2;}
</style>
<rect x="425.1" y="100.8" class="st0" width="60.1" height="173.2"/>
<g>
	<path class="st0" d="M519.9,100.8h54.7v31.9h0.6c12-25,36.1-35.9,63.4-35.9c24.7,0,45.1,10.7,54.4,33.2
		c14-23.3,37.1-33.2,61.7-33.2c50,0,61.4,28.3,61.4,75.2v102H756v-93.1c0-19.6-7-34.2-24-34.2c-21.4,0-34,16.9-34,54.2V274h-60
		v-93.1c0-19.6-7-34.2-24.1-34.2c-21.3,0-34,16.9-34,54.2V274h-60L519.9,100.8L519.9,100.8L519.9,100.8z"/>
	<path class="st0" d="M989.5,150.3c-11-6.7-22-9.6-36.4-9.6c-26,0-46,17.9-46,47.9c0,27.6,23.4,45.6,49.3,45.6
		c13.7,0,27.4-3,37.4-8.3l1.3,44.5c-15,5-33,7.6-48.9,7.6c-57.4,0-101.1-33.2-101.1-90.4s43.7-90.7,101.1-90.7c18,0,33.9,3,47.7,9.7
		L989.5,150.3L989.5,150.3z"/>
	<path class="st0" d="M1353.2,150.3c-11-6.7-22-9.6-36.4-9.6c-26,0-46,17.9-46,47.9c0,27.6,23.3,45.6,49.4,45.6
		c13.7,0,27.3-3,37.3-8.3l1.3,44.5c-15,5-33,7.6-49.1,7.6c-57.4,0-101-33.2-101-90.4s43.6-90.7,101-90.7c18,0,34.1,3,47.7,9.7
		L1353.2,150.3L1353.2,150.3z"/>
	<path class="st0" d="M1022.7,298.3c8,2.6,15.4,3.6,23.7,3.6c14.8,0,26-8.7,30.4-24l-70.4-177.2h64.7l37.4,113h0.6l35.7-113h60.1
		l-63.7,161.2c-17,43.6-30,85.8-85.1,85.8c-12.7,0-25-1.3-37.3-4L1022.7,298.3L1022.7,298.3z"/>
	<path class="st0" d="M120.1,130.6c12-15.2,30.6-25,51.4-25s39.4,9.8,51.4,25L315,77.5C284.4,30.9,231.5,0,171.5,0
		S58.6,30.9,28,77.5L120.1,130.6z"/>
	<path class="st0" d="M162.1,235.4c-31.7-4.5-56-31.7-56-64.5c0-8.5,1.7-16.6,4.7-24.1L18.7,93.9C6.9,117,0,143.1,0,170.9
		c0,91.2,71.8,165.5,162.1,170.4V235.4L162.1,235.4z"/>
	<path class="st0" d="M324.4,93.9l-92,52.9c3,7.5,4.7,15.6,4.7,24.1c0,32.8-24.4,60-56.1,64.5v105.9
		c90.3-4.9,162.1-79.2,162.1-170.4C343,143.1,336.3,117,324.4,93.9"/>
	<path class="st0" d="M1391.6,112.4c-4.2,4.2-6.4,9.3-6.4,15.3c0,6,2.1,11,6.4,15.3c4.2,4.2,9.3,6.4,15.3,6.4s11-2.1,15.3-6.4
		c4.2-4.2,6.4-9.3,6.4-15.3c0-6-2.1-11-6.4-15.3c-4.2-4.2-9.3-6.4-15.3-6.4C1400.9,106.1,1395.8,108.2,1391.6,112.4 M1394.4,140.8
		c-3.3-3.5-5-7.9-5-13.1c0-5.2,1.7-9.6,5-13.1s7.5-5.3,12.6-5.3s9.1,1.8,12.4,5.3s5,7.9,5,13.1c0,5.2-1.7,9.6-5,13.1
		s-7.5,5.3-12.5,5.3S1397.7,144.3,1394.4,140.8 M1398.6,140.3h4.1v-11.2h3.5l7.1,11.2h4.4l-7.2-11.2c2,0,3.6-0.7,4.8-1.9
		c1.2-1.3,1.8-3,1.8-5.1c0-4.8-2.9-7.1-8.7-7.1h-9.7v25.3H1398.6L1398.6,140.3z M1402.7,118.2h4.9c1.5,0,2.8,0.3,3.7,0.9
		c1,0.6,1.5,1.5,1.5,2.8c0,1.6-0.4,2.6-1.3,3.1s-2.2,0.8-3.9,0.8h-4.9L1402.7,118.2L1402.7,118.2L1402.7,118.2z"/>
</g>
</svg>
